<svg xmlns="http://www.w3.org/2000/svg" width="58.539" height="56.893" viewBox="0 0 58.539 56.893"><g transform="translate(-1692.002 -1285.376)"><path d="M1975.8,1307.013a7.978,7.978,0,0,0-1.677.182l-2.168-5.24h0l-6.542-15.817a1.235,1.235,0,0,0-2.282,0L1956,1303.4h0l-1.642,3.969a7.989,7.989,0,0,0-5.181,15.107.955.955,0,0,0,1.22-.529l4.964-12c.071.048.142.1.211.148l15.525,11.356a7.986,7.986,0,1,0,4.711-14.436Zm-26.8,13.28a6.077,6.077,0,0,1,4.613-11.148Zm7.093-12.141,2.352-5.688h0L1960.3,1298l7.821,18.906-11.421-8.354Q1956.406,1308.336,1956.1,1308.151Zm16.123,11.754-1.137-.832-9.752-23.576,2.943-7.116,6.021,14.556h0l7.378,17.836a6.058,6.058,0,0,1-5.453-.869Zm7.159-.009L1974.876,1309a6.157,6.157,0,0,1,.937-.078,6.067,6.067,0,0,1,3.569,10.973Z" transform="translate(-242.982)"/><g transform="translate(1692.002 1332.392)"><path d="M1696.306,2599.315l-4.3,9.877h1.515l.991-2.327h5.033l.992,2.327h1.5l-4.29-9.877Zm.712,1.625c.014.032.027.064.042.1l1.925,4.515h-3.921l1.911-4.514C1696.99,2601.005,1697,2600.972,1697.018,2600.94Z" transform="translate(-1692.002 -2599.315)"/><path d="M2080.626,2599.315h-1.4v9.877h6.738v-1.341h-5.343Z" transform="translate(-2065.374 -2599.315)"/><path d="M2385.275,2599.986a5.476,5.476,0,0,0-2.946-.671h-3.41v9.877h1.4v-3.415h2.015a5.48,5.48,0,0,0,2.946-.671,3.227,3.227,0,0,0,0-5.12Zm-.146,2.56c0,1.308-.846,1.891-2.745,1.891h-2.07v-3.781h2.07a4.013,4.013,0,0,1,1.966.375A1.591,1.591,0,0,1,2385.128,2602.546Z" transform="translate(-2354.339 -2599.315)"/><path d="M2717.016,2603.57h-5.476v-4.255h-1.4v9.877h1.4v-4.282h5.476v4.282h1.4v-9.877h-1.4Z" transform="translate(-2673.714 -2599.315)"/><path d="M3053.41,2599.315h-1.437l-4.3,9.877h1.514l.991-2.327h5.033l.991,2.327h1.5Zm-.726,1.625c.013.032.027.064.042.1l1.925,4.515h-3.921l1.911-4.514C3052.657,2601.005,3052.671,2600.972,3052.684,2600.94Z" transform="translate(-2999.16 -2599.315)"/></g></g></svg>