<svg xmlns="http://www.w3.org/2000/svg" width="58.714" height="56.615" viewBox="0 0 58.714 56.615"><g transform="translate(-250.509 -137.697)"><g transform="translate(250.509 187.151)"><g transform="translate(0)"><path d="M255.483,431.5l-.549-1.275H252.46l-.549,1.275h-1.4l2.55-5.9h1.275l2.55,5.9Zm-1.782-4.146-.743,1.714h1.478Z" transform="translate(-250.509 -425.461)"/><path d="M303.534,427.861a3.011,3.011,0,0,1-.469,1.655,2.9,2.9,0,0,1-1.262,1.1.607.607,0,0,0,.241.215.712.712,0,0,0,.342.089,1.122,1.122,0,0,0,.346-.055.933.933,0,0,0,.27-.131,1.23,1.23,0,0,0,.312-.346l.684.819a2.4,2.4,0,0,1-1.816.768,1.993,1.993,0,0,1-1-.279,1.871,1.871,0,0,1-.751-.785,3.033,3.033,0,0,1-2.2-.874,3.089,3.089,0,0,1,0-4.349,3.216,3.216,0,0,1,4.408,0A2.917,2.917,0,0,1,303.534,427.861Zm-1.343,0a1.93,1.93,0,0,0-.507-1.347,1.67,1.67,0,0,0-2.491,0,2.038,2.038,0,0,0,0,2.689,1.679,1.679,0,0,0,2.491,0A1.915,1.915,0,0,0,302.191,427.865Z" transform="translate(-289.27 -424.813)"/><path d="M350.8,429.975a1.078,1.078,0,0,0,.887.41,1.066,1.066,0,0,0,.882-.41,1.753,1.753,0,0,0,.325-1.119V425.6h1.317v3.3a2.622,2.622,0,0,1-.709,1.972,2.739,2.739,0,0,1-3.635,0,2.615,2.615,0,0,1-.714-1.967v-3.3h1.317v3.259A1.739,1.739,0,0,0,350.8,429.975Z" transform="translate(-332.163 -425.461)"/><path d="M395.9,431.5l-.549-1.275h-2.474l-.549,1.275h-1.4l2.55-5.9h1.275l2.55,5.9Zm-1.782-4.146-.743,1.714h1.478Z" transform="translate(-366.736 -425.461)"/><path d="M439.359,426.737V431.5h-1.317v-4.762H436.37V425.6h4.661v1.14Z" transform="translate(-404.356 -425.462)"/><path d="M483.611,427.556a1.738,1.738,0,0,1-1.123,1.832l1.495,2.111h-1.621l-1.309-1.883h-.912V431.5h-1.317v-5.9h2.238a3.208,3.208,0,0,1,1.963.464A1.792,1.792,0,0,1,483.611,427.556Zm-1.588.7a.893.893,0,0,0,.245-.7.746.746,0,0,0-.253-.655,1.62,1.62,0,0,0-.887-.177h-.988v1.748h.962A1.415,1.415,0,0,0,482.023,428.257Z" transform="translate(-439.497 -425.462)"/><path d="M528.524,425.6v1.174h-2.939v1.216h2.643v1.123h-2.643v1.224h3.031V431.5h-4.349v-5.9Z" transform="translate(-477.114 -425.462)"/><path d="M570.39,425.6v1.174h-2.938v1.216h2.643v1.123h-2.643v1.224h3.031V431.5h-4.349v-5.9Z" transform="translate(-511.769 -425.462)"/></g></g><g transform="translate(257.875 137.697)"><path d="M345.095,319.31c-3.087-1.626-5.322.289-7.426,1.748a5.58,5.58,0,0,1-6.327,0l-1.457-1.01a7.283,7.283,0,0,0-8.26,0l-1.457,1.01a5.58,5.58,0,0,1-6.328,0c-2.094-1.452-4.063-3.2-7.321-1.845a.848.848,0,0,0,.652,1.566c2.329-.971,3.645.247,5.7,1.673a7.283,7.283,0,0,0,8.26,0l1.457-1.01a5.58,5.58,0,0,1,6.328,0c1.63,1.13,3,2.294,5.587,2.294,4.929,0,6.243-4.8,9.8-2.925a.848.848,0,0,0,.79-1.5Z" transform="translate(-303.804 -287.513)"/><path d="M359.45,350.649c-.107.086-.217.182-.344.293a7.291,7.291,0,0,1-5.472,2.029c-5.241-.141-6.616-5.191-12.758-1.489a11.483,11.483,0,0,1-4.716,1.489,7.614,7.614,0,0,1-5.817-2.322.848.848,0,1,0-1.061,1.322c.078.063.175.148.288.247a8.941,8.941,0,0,0,6.636,2.448,13.17,13.17,0,0,0,5.546-1.732,5.013,5.013,0,0,1,6.291,0,13.174,13.174,0,0,0,5.545,1.732,9.236,9.236,0,0,0,6.924-2.7.848.848,0,0,0-1.062-1.323Z" transform="translate(-322.817 -313.538)"/><path d="M405.337,379.646c-2.515-1.744-4.384-1.927-7.155,0a.848.848,0,0,0,.969,1.392c2.133-1.486,3.263-1.356,5.22,0a.848.848,0,1,0,.966-1.394Z" transform="translate(-379.811 -336.831)"/><path d="M301.014,169.012c1.568,1.087,2.979,2.3,5.7,2.3a6.462,6.462,0,0,0,6.668-5.917c.007-.1,0-4.981,0-5.078,0-2.659-3.258-5.107-5.332-7.437-.174-1.967-.394-3.638-.611-5.134.12-.113-.116.217,3.809-5.7a.848.848,0,0,0-1.413-.937l-2.762,4.165c-.12-.812-.232-1.608-.328-2.425a.848.848,0,0,0-1.684.2c.309,2.622.769,5,1.126,8.229-2.2-1.836-2.9-2.522-5.676-4.637a.848.848,0,0,0-1.027,1.349c1.155.88,1.945,1.509,2.634,2.077l-4.1-.223a.848.848,0,0,0-.092,1.693l6.347.344c.627.53,1.369,1.149,2.371,1.964,1.725,1.985,4.489,4.2,4.975,5.977a8.316,8.316,0,0,0-4.951-2.171,17.6,17.6,0,0,0-2.853-3.32.848.848,0,1,0-1.119,1.274,16.7,16.7,0,0,1,1.806,1.932,18.645,18.645,0,0,0-2.524.2l-5.249-4.364a.848.848,0,1,0-1.084,1.3l3.439,2.859h-4.7a.848.848,0,1,0,0,1.7h4.995l-5.711,3.633a.848.848,0,0,0,.91,1.431l7.679-4.885a15.791,15.791,0,0,1,4.966.042c-1.616,1.532-3.458,3.57-3.555,3.677a.848.848,0,0,0,1.259,1.136c.027-.03,2.481-2.745,4.132-4.2,2.789,1.439,2.63,3.659,2.63,5.218a4.7,4.7,0,0,1-3.406,4.115,5.847,5.847,0,0,1-4.844-.768l-1.457-1.01a7.659,7.659,0,0,0-7.717-.348.848.848,0,0,0,.783,1.5A6,6,0,0,1,301.014,169.012Z" transform="translate(-293.272 -140.203)"/><path d="M418.858,159.213a.848.848,0,0,0,1.15-1.246,17.79,17.79,0,0,0-6.184-4.014l3.411-.616a.848.848,0,0,0-.3-1.669c-7.348,1.328-6.93,1.243-7.05,1.29a9.137,9.137,0,0,0-1.521-.005c1.208-1.219,2.325-2.334,3.286-3.287.121.02-.158.012,4.238.027a.848.848,0,1,0,.006-1.7l-2.545-.009c1.05-1.032,1.681-1.644,1.7-1.659a.848.848,0,0,0-1.18-1.218c-.022.021-1.314,1.273-3.29,3.232.222-1.956.331-3.3.692-5.9a.848.848,0,0,0-1.68-.234c-.483,3.476-.528,4.815-.958,8.07-.816.817-1.694,1.7-2.609,2.63l-.373-5.318a.848.848,0,0,0-1.692.119c.488,6.967.453,6.528.473,6.624a9.386,9.386,0,0,0-2.317,2.15,7.276,7.276,0,0,0-1.856-3.113c-.6-.73-1.367-1.666-2.259-2.733l.821-1.938c3.057-2.573,7.562-6.475,8.888-7.625a.848.848,0,0,0-1.111-1.281c-.983.853-3.716,3.221-6.306,5.434l2.587-6.108a.848.848,0,0,0-1.562-.661l-1.969,4.651c-.244-1.717-.489-3.158-.718-4.692a.848.848,0,1,0-1.677.251c.349,2.335.733,4.451,1.081,7.545l-1.257,2.969q-.476-.562-.982-1.152l-.525-4.351a.848.848,0,1,0-1.684.2l.587,4.863c2.7,3.132,4.5,5.373,5.553,6.644.312.377,1.311,1.861,1.024,5.123a17.966,17.966,0,0,0-.023,2.124,6.462,6.462,0,0,0,4,5.88,7.358,7.358,0,0,0,2.042.284c2.7,0,4.1-1.191,5.7-2.3a5.147,5.147,0,0,1,6.06.021.848.848,0,0,0,.966-1.394,6.871,6.871,0,0,0-7.992-.021l-1.457,1.01a5.844,5.844,0,0,1-4.843.768,4.775,4.775,0,0,1-2.773-4.325c-.162-3.732.706-4.982,2.12-6.189a6.812,6.812,0,0,1,4.237-1.75l3.5,5.472a.848.848,0,1,0,1.428-.914l-2.789-4.359q.375.081.762.193A16.184,16.184,0,0,1,418.858,159.213Z" transform="translate(-376.298 -137.697)"/></g></g></svg>