<svg xmlns="http://www.w3.org/2000/svg" width="99.27" height="47.938" viewBox="0 0 99.27 47.938"><g transform="translate(-107.243 -258.627)"><g transform="translate(137.134 278.026)"><path d="M648.99,374.08v1.971h2.637v6.818h2.109v-6.818h2.675V374.08Z" transform="translate(-587.032 -373.904)"/><path d="M542.719,380.9v-1.557h3.352V377.5h-3.352v-1.444H547V374.08h-6.391v8.789h6.466V380.9Z" transform="translate(-497.026 -373.904)"/><path d="M480.92,374.079v2.009c0,1.595.026,3.151.013,3.151h-.013c-.012,0-1.356-1.9-1.921-2.649l-1.871-2.511h-1.984v8.789h2.11v-1.947c0-1.921-.025-3.277-.013-3.277h.013c.013,0,1.193,1.67,2,2.775l1.8,2.448h1.984v-8.789H480.92Z" transform="translate(-442.661 -373.904)"/><path d="M415.457,374.079v2.009c0,1.595.025,3.151.012,3.151h-.012c-.012,0-1.356-1.9-1.921-2.649l-1.871-2.511h-1.984v8.789h2.109v-1.947c0-1.921-.025-3.277-.013-3.277h.013c.012,0,1.193,1.67,2,2.775l1.8,2.448h1.984v-8.789h-2.109Z" transform="translate(-388.297 -373.904)"/><path d="M342.859,377.614a2.37,2.37,0,1,1,2.36,2.486,2.3,2.3,0,0,1-2.36-2.486m-2.2,0a4.564,4.564,0,1,0,4.557-4.57,4.482,4.482,0,0,0-4.557,4.57" transform="translate(-330.979 -373.044)"/><path d="M289.875,379.372a2.486,2.486,0,1,1,0-3.516l1.474-1.474a4.57,4.57,0,1,0,0,6.463Z" transform="translate(-283.547 -373.044)"/><path d="M598.039,379.372a2.486,2.486,0,1,1,0-3.516l1.474-1.474a4.57,4.57,0,1,0,0,6.463Z" transform="translate(-539.464 -373.044)"/></g><path d="M126.722,314.154,113.169,300.6a3.471,3.471,0,1,0-4.909,4.909l11.1,11.1,2.455-2.455A3.47,3.47,0,0,1,126.722,314.154Z" transform="translate(0 -34.013)"/><path d="M124.268,403.471a3.46,3.46,0,0,1-2.455-1.017L119.358,400l-11.1,11.1a3.472,3.472,0,1,0,4.909,4.91l13.553-13.553A3.461,3.461,0,0,1,124.268,403.471Z" transform="translate(0 -117.403)"/><path d="M183.611,386.465a3.472,3.472,0,1,0-2.455-5.927l-2.455,2.455,2.455,2.455A3.46,3.46,0,0,0,183.611,386.465Z" transform="translate(-59.344 -100.397)"/><path d="M162.77,278.107a3.471,3.471,0,0,1,0-4.909l2.455-2.455-11.1-11.1a3.471,3.471,0,0,0-4.909,4.909Z" transform="translate(-34.013)"/><path d="M251.07,313.381l6.352-6.351a3.472,3.472,0,0,0-4.91-4.909l-3.9,3.9,2.455,2.455A3.471,3.471,0,0,1,251.07,313.381Z" transform="translate(-117.404 -35.275)"/><path d="M229.155,337.45a3.471,3.471,0,0,0,4.909-4.909l-2.455-2.455-2.455,2.455A3.471,3.471,0,0,0,229.155,337.45Z" transform="translate(-100.398 -59.344)"/><path d="M162.77,426.477,149.217,440.03a3.471,3.471,0,1,0,4.909,4.909l11.1-11.1-2.455-2.455A3.471,3.471,0,0,1,162.77,426.477Z" transform="translate(-34.013 -139.392)"/><path d="M251.07,426.477a3.471,3.471,0,0,1,0,4.91l-2.455,2.455,3.9,3.9a3.472,3.472,0,1,0,4.91-4.909Z" transform="translate(-117.404 -139.392)"/><path d="M234.064,421.495a3.472,3.472,0,1,0-4.909,4.91l2.455,2.455,2.455-2.455A3.471,3.471,0,0,0,234.064,421.495Z" transform="translate(-100.398 -134.41)"/></g></svg>