<svg xmlns="http://www.w3.org/2000/svg" width="52.005" height="52.005" viewBox="0 0 52.005 52.005"><path d="M52.951,34.93a23.216,23.216,0,0,0-10.5-25.1.9.9,0,1,0-.941,1.527A21.431,21.431,0,0,1,51.255,34.31a6.285,6.285,0,1,0,1.7.62ZM49.975,44.938a4.483,4.483,0,1,1,4.483-4.483A4.488,4.488,0,0,1,49.975,44.938Z" transform="translate(-4.247 -1.002)" fill="#f30"/><path d="M34.226,52.406a21.508,21.508,0,0,1-23.481-4.729,6.275,6.275,0,1,0-1.436,1.091,23.29,23.29,0,0,0,25.6,5.294.9.9,0,1,0-.686-1.656ZM1.793,43.276A4.483,4.483,0,1,1,6.276,47.76,4.488,4.488,0,0,1,1.793,43.276Z" transform="translate(0 -3.824)" fill="#f30"/><path d="M3.9,27.987l.064,0a.9.9,0,0,0,.894-.834A21.409,21.409,0,0,1,20.3,8.045a6.267,6.267,0,1,0-.257-1.791A23.2,23.2,0,0,0,3.073,27.03.9.9,0,0,0,3.9,27.987ZM26.32,1.793a4.483,4.483,0,1,1-4.483,4.483A4.488,4.488,0,0,1,26.32,1.793Z" transform="translate(-0.317 0)" fill="#f30"/></svg>