<svg xmlns="http://www.w3.org/2000/svg" width="110.767" height="32.765" viewBox="0 0 110.767 32.765"><g transform="translate(-899.283 -1237.701)"><g transform="translate(899.283 1237.701)"><path d="M924.018,1784.04a32.1,32.1,0,0,1-3.845,2.463.138.138,0,0,1-.129,0c-.886-.468-10.651-5.786-12.517-14.064a.138.138,0,0,1,.256-.1c1.335,2.388,4.342,4.131,6.495,5.289,1.818.978,3.935,1.739,5.831,2.783a10.416,10.416,0,0,1,3.943,3.44A.139.139,0,0,1,924.018,1784.04Z" transform="translate(-907.238 -1753.754)"/><path d="M925.025,1241.965v-3.955a.308.308,0,0,0-.308-.308H915.26a.505.505,0,0,0-.462.354l-.658,2.434a.505.505,0,0,1-.463.354h-4.3v-1.258a7.757,7.757,0,0,0,2.777-.523,2.183,2.183,0,0,0,1.363-1.262.077.077,0,0,0-.074-.1H907.7a3.231,3.231,0,0,0-2.982,1.389,7.386,7.386,0,0,0-.571,3.98,7.96,7.96,0,0,1-1.412-5.157.191.191,0,0,0-.19-.212h-2.961a.3.3,0,0,0-.3.3v.779c.169,2.745,1.7,10,12.871,13.349,9.418,2.828,10.817,7.166,11.091,7.926a.048.048,0,0,0,.088.006c2.608-4.984-2.823-8.574-2.823-8.574a9.813,9.813,0,0,1,4.086,1.379.287.287,0,0,0,.429-.25v-5.53a.506.506,0,0,0-.629-.491c-.467.117-1.041.231-1.138.25a6.4,6.4,0,0,1-4.225-.3,2.153,2.153,0,0,1-.635-3.4,4.357,4.357,0,0,1,3.543-1.211,15.318,15.318,0,0,1,2.553.438A.421.421,0,0,0,925.025,1241.965Z" transform="translate(-899.283 -1237.701)"/><path d="M918.8,1532.063a.138.138,0,0,1-.208,0,23.1,23.1,0,0,0-6.433-5.072,26.273,26.273,0,0,0-2.777-1.316c-6.011-2.431-9.792-4.964-10.094-11.711v-.216a.138.138,0,0,1,.25-.081c2.2,3.015,5.012,4.777,8.422,6.469,1.4.692,2.812,1.258,4.2,1.845a21.3,21.3,0,0,1,6.4,3.734,4.215,4.215,0,0,1,.243,6.352Z" transform="translate(-899.285 -1504.049)"/></g><g transform="translate(938.377 1247.594)"><path d="M2030.375,1538.5v2.432h3.095v2.432h-3.095v4.863h-2.432v-12.158h6.071v2.432h-3.639Z" transform="translate(-2027.943 -1535.631)"/><path d="M2357.343,1544v-7.924h2.432v7.907a1.973,1.973,0,0,0,3.945,0v-7.907h2.415V1544C2366.134,1549.779,2357.343,1549.779,2357.343,1544Z" transform="translate(-2345.933 -1535.631)"/><path d="M2777.327,1545.339c-8.026,0-8.434-12.022,0-12.328a8.2,8.2,0,0,1,2.84.442l-.289,2.466a5.76,5.76,0,0,0-2.551-.442c-4.914.17-4.693,7.431,0,7.431a4.6,4.6,0,0,0,.68-.068v-3.656h2.466v5.339A6.327,6.327,0,0,1,2777.327,1545.339Z" transform="translate(-2745.41 -1532.671)"/><path d="M3215.455,1548.232v-12.158h2.432v12.158Z" transform="translate(-3174.322 -1535.632)"/><path d="M3436.57,1523.31h.255l5.118,12.6h-2.738l-.493-1.309h-4.03l-.476,1.309h-2.755Zm1.242,9.012-1.105-3.163-1.139,3.163Z" transform="translate(-3382.837 -1523.31)"/><path d="M3855.193,1548.706v-9.727h-3.027v-2.415h8.485v2.415h-3.027v9.727Z" transform="translate(-3788.979 -1536.106)"/></g></g></svg>