<svg xmlns="http://www.w3.org/2000/svg" width="40.011" height="44.012" viewBox="0 0 40.011 44.012"><path d="M42.394,6.81c-.78-2.89-5.793-5.741-14.847-6.6C26.189.084,24.412,0,22.505,0,10.441,0,3.543,3.377,2.617,6.81A.784.784,0,0,0,2.5,7.2V36.81a.753.753,0,0,0,.094.361c.945,3.917,9.4,6.841,19.912,6.841,10.488,0,18.929-2.912,19.905-6.815a.79.79,0,0,0,.1-.387V7.2A.784.784,0,0,0,42.394,6.81ZM40.847,27.2a1.969,1.969,0,0,1-.093.29,2.3,2.3,0,0,1-.114.238,2.713,2.713,0,0,1-.185.3c-.053.074-.113.148-.175.222-.089.1-.183.21-.29.314-.065.063-.136.126-.208.189-.131.114-.268.228-.421.341-.066.049-.136.1-.206.144-.181.125-.37.249-.577.37-.054.033-.113.064-.17.1-.238.134-.487.268-.756.4l-.106.049c-.3.142-.614.281-.949.415l-.029.011A31.021,31.021,0,0,1,29.718,32.3l-.041.006q-.79.116-1.621.207c-.09.01-.186.016-.277.026-.484.05-.974.1-1.478.134-.23.017-.472.025-.707.039-.379.022-.755.047-1.144.061-.635.02-1.284.033-1.945.033s-1.31-.013-1.946-.035c-.389-.014-.764-.039-1.144-.061-.234-.014-.476-.022-.707-.039-.5-.037-.994-.083-1.478-.134-.091-.01-.186-.016-.277-.026q-.832-.091-1.621-.207l-.041-.006a31.021,31.021,0,0,1-6.851-1.736l-.029-.011c-.335-.134-.65-.274-.949-.415l-.106-.049c-.269-.13-.518-.262-.756-.4-.056-.032-.115-.063-.17-.1-.207-.122-.4-.246-.577-.371-.069-.048-.14-.1-.206-.144-.153-.113-.29-.226-.421-.341-.071-.062-.143-.125-.208-.189a4.177,4.177,0,0,1-.29-.314c-.062-.074-.122-.147-.175-.222a2.984,2.984,0,0,1-.185-.3,2.476,2.476,0,0,1-.114-.238,1.939,1.939,0,0,1-.093-.29,1.732,1.732,0,0,1-.062-.386,1.708,1.708,0,0,1,.025-.27.8.8,0,0,0-.025-.356V20.24c.022.021.05.041.074.062.174.154.352.306.552.454,3.014,2.28,9.042,4.051,17.779,4.051,8.7,0,14.713-1.757,17.74-4.023a8.147,8.147,0,0,0,.664-.543h0v5.941a.8.8,0,0,0-.025.356,1.62,1.62,0,0,1,.025.27A1.73,1.73,0,0,1,40.847,27.2Zm.063-16.558v5.941a.8.8,0,0,0-.025.356,1.62,1.62,0,0,1,.025.27,1.73,1.73,0,0,1-.063.388,1.969,1.969,0,0,1-.093.29,2.3,2.3,0,0,1-.114.238,2.713,2.713,0,0,1-.185.3c-.053.074-.113.148-.175.222-.089.1-.183.21-.29.314-.065.063-.136.126-.208.189-.131.114-.268.228-.421.341-.066.049-.136.1-.206.144-.181.125-.37.249-.577.371-.054.033-.113.064-.17.1-.238.134-.487.268-.756.4l-.106.049c-.3.142-.614.281-.949.415l-.029.011A31.021,31.021,0,0,1,29.718,22.7l-.041.006q-.79.116-1.621.207c-.09.01-.186.016-.277.026-.484.05-.974.1-1.478.134-.23.017-.472.025-.707.039-.379.022-.755.047-1.144.061-.635.02-1.284.033-1.945.033s-1.31-.013-1.946-.035c-.389-.014-.764-.039-1.144-.061-.234-.014-.476-.022-.707-.039-.5-.037-.994-.083-1.478-.134-.091-.01-.186-.016-.277-.026q-.832-.091-1.621-.207l-.041-.006a31.021,31.021,0,0,1-6.851-1.736l-.029-.011c-.335-.134-.65-.274-.949-.415l-.106-.049c-.269-.13-.518-.262-.756-.4-.056-.032-.115-.063-.17-.1-.207-.122-.4-.246-.577-.371-.069-.048-.14-.1-.206-.144-.153-.113-.29-.226-.421-.341-.071-.062-.143-.125-.208-.189a4.176,4.176,0,0,1-.29-.314c-.062-.074-.122-.147-.175-.222a2.984,2.984,0,0,1-.185-.3,2.476,2.476,0,0,1-.114-.238,1.94,1.94,0,0,1-.093-.29A1.732,1.732,0,0,1,4.1,17.2a1.708,1.708,0,0,1,.025-.27.8.8,0,0,0-.025-.356V10.637c.1.087.206.173.31.259.058.048.111.1.172.144.24.189.5.375.78.557.058.038.124.074.185.112q.353.22.746.431c.1.052.194.1.294.154q.438.223.921.434c.053.023.1.047.154.07.375.159.774.311,1.188.459.114.041.234.079.352.119q.495.167,1.023.321c.127.037.252.075.383.11.468.13.951.253,1.459.367.07.016.145.029.215.044.447.1.911.188,1.388.273.162.029.326.056.491.083q.681.112,1.4.2c.123.016.241.034.366.05.6.072,1.212.134,1.844.186.156.013.318.022.477.034q.76.055,1.554.091c.193.009.385.018.582.025.69.023,1.392.04,2.121.04s1.431-.017,2.121-.04c.2-.007.388-.016.582-.025q.795-.036,1.554-.091c.158-.012.32-.021.477-.034.633-.052,1.249-.114,1.844-.186.125-.015.242-.034.366-.05q.719-.094,1.4-.2c.165-.027.329-.054.491-.083.477-.085.941-.175,1.388-.273l.215-.044c.507-.114.991-.238,1.459-.366.13-.036.255-.074.383-.11q.529-.155,1.023-.321c.118-.04.238-.078.352-.119.415-.147.814-.3,1.188-.459.054-.022.1-.046.154-.07q.484-.211.921-.434c.1-.051.2-.1.294-.154q.393-.21.746-.431c.061-.038.126-.074.185-.112.281-.182.54-.367.78-.557.06-.048.114-.1.172-.144C40.7,10.81,40.814,10.724,40.91,10.637ZM22.505,1.6c10.847,0,18.4,3.162,18.4,6s-7.558,6-18.4,6S4.1,10.441,4.1,7.6,11.658,1.6,22.505,1.6Zm18.4,34.972a.815.815,0,0,0-.026.108c-.454,2.768-7.948,5.731-18.379,5.731S4.58,39.448,4.126,36.68a.871.871,0,0,0-.026-.1V29.842c.022.021.05.041.074.062.174.154.352.306.552.454,3.014,2.28,9.042,4.051,17.779,4.051,8.7,0,14.713-1.757,17.74-4.023a8.147,8.147,0,0,0,.664-.543h0Z" transform="translate(-2.5)" fill="#f30"/></svg>