<svg xmlns="http://www.w3.org/2000/svg" width="39.997" height="51.365" viewBox="0 0 39.997 51.365"><path d="M39.543,10.4,20.238.113a.959.959,0,0,0-.914.005L.553,10.405a.961.961,0,0,0-.5.843V24.686A27.823,27.823,0,0,0,16.73,50.15l2.605,1.135a.96.96,0,0,0,.765,0l2.936-1.268a27.768,27.768,0,0,0,17.015-25.6V11.248A.961.961,0,0,0,39.543,10.4ZM38.13,24.419A25.85,25.85,0,0,1,22.284,48.25l-.006,0-2.557,1.1L17.5,48.388a25.9,25.9,0,0,1-15.523-23.7V11.817L19.792,2.053,38.13,11.824Zm0,0" transform="translate(-0.055 0)" fill="#f30"/><path d="M81.534,150.05a.961.961,0,0,0-1.462,1.248l5.077,5.945a.961.961,0,0,0,1.337.122l11.824-9.62a.961.961,0,1,0-1.213-1.491L86,155.281Zm0,0" transform="translate(-68.887 -125.988)" fill="#f30"/></svg>