<svg xmlns="http://www.w3.org/2000/svg" width="52.928" height="35.286" viewBox="0 0 52.928 35.286"><path d="M44.968,24.285A15.107,15.107,0,0,0,30.068,10a15.549,15.549,0,0,0-12.3,6.182c-.066-.034-.136-.058-.2-.09-.175-.085-.352-.165-.533-.237-.1-.04-.2-.076-.3-.111-.179-.063-.361-.118-.546-.168-.1-.027-.2-.056-.3-.079-.2-.045-.4-.079-.606-.11-.089-.013-.176-.031-.266-.041a7.915,7.915,0,0,0-8.829,7.886c0,.112.007.222.014.333v0A12.2,12.2,0,0,0,0,33.954,11.344,11.344,0,0,0,11.331,45.286H32.951c.092,0,.183-.005.274-.012l.055-.007.118.007c.09.007.18.012.273.012h8.648a10.623,10.623,0,0,0,10.61-10.61A10.857,10.857,0,0,0,44.968,24.285Zm-2.65,19.236H33.67c-.052,0-.1,0-.153-.008l-.239-.01-.175.01c-.05,0-.1.008-.153.008H11.331a9.578,9.578,0,0,1-9.567-9.568,10.486,10.486,0,0,1,5.675-9.045l.5-.239v-.556c0-.112.007-.226.013-.341l.008-.141-.011-.185c-.005-.071-.011-.143-.011-.215a6.134,6.134,0,0,1,6.984-6.116c.069.009.138.02.206.032a6.013,6.013,0,0,1,.7.156l.094.024a6.009,6.009,0,0,1,.737.283c.063.028.123.059.185.089a6.162,6.162,0,0,1,3.449,5.532.882.882,0,1,0,1.764,0,7.921,7.921,0,0,0-2.823-6.061,13.973,13.973,0,0,1,10.837-5.407,13.317,13.317,0,0,1,13.1,12.251,16.849,16.849,0,0,0-3.6.109.882.882,0,0,0,.131,1.755.847.847,0,0,0,.133-.011,16.2,16.2,0,0,1,4.132,0,9.041,9.041,0,0,1,7.2,8.808A8.857,8.857,0,0,1,42.318,43.521Z" transform="translate(0 -10)" fill="#f30"/></svg>