<svg xmlns="http://www.w3.org/2000/svg" width="52.072" height="39.922" viewBox="0 0 52.072 39.922"><g transform="translate(0 -59.733)"><g transform="translate(0 59.733)"><path d="M49.468,59.733H2.6a2.6,2.6,0,0,0-2.6,2.6V97.051a2.6,2.6,0,0,0,2.6,2.6H49.468a2.6,2.6,0,0,0,2.6-2.6V62.337A2.6,2.6,0,0,0,49.468,59.733Zm.868,37.318a.868.868,0,0,1-.868.868H2.6a.868.868,0,0,1-.868-.868V62.337a.868.868,0,0,1,.868-.868H49.468a.868.868,0,0,1,.868.868V97.051Z" transform="translate(0 -59.733)" fill="#f30"/><path d="M78.469,93.868a.867.867,0,0,0-.634.2L57.814,110.887a1.736,1.736,0,0,1-2.234,0L35.559,94.068a.868.868,0,0,0-1.116,1.33l20.022,16.818a3.467,3.467,0,0,0,4.466,0L78.952,95.4a.868.868,0,0,0-.482-1.529Z" transform="translate(-30.661 -90.394)" fill="#f30"/><path d="M47.234,272.946a.868.868,0,0,0-.837.27l-12.15,13.018a.868.868,0,1,0,1.269,1.184L47.666,274.4a.868.868,0,0,0-.432-1.453Z" transform="translate(-30.542 -251.243)" fill="#f30"/><path d="M342.717,273.215a.868.868,0,1,0-1.269,1.184l12.15,13.018a.868.868,0,0,0,1.269-1.184Z" transform="translate(-306.5 -251.243)" fill="#f30"/></g></g></svg>