<svg xmlns="http://www.w3.org/2000/svg" width="51.303" height="51.303" viewBox="0 0 51.303 51.303"><g transform="translate(8.551 8.551)"><path d="M121.9,80H101.376a.855.855,0,0,0-.855.855v7.7a.855.855,0,0,0,1.125.811L102.721,89a2.223,2.223,0,1,1,0,4.226l-1.075-.358a.855.855,0,0,0-1.125.811v6.84h-6.84a.855.855,0,0,0-.811,1.125l.358,1.075a2.223,2.223,0,1,1-4.226,0l.358-1.075a.855.855,0,0,0-.811-1.125h-7.7a.855.855,0,0,0-.855.855V121.9a.855.855,0,0,0,.855.855H121.9a.855.855,0,0,0,.855-.855V80.855A.855.855,0,0,0,121.9,80Zm-21.332,33.932a.855.855,0,0,0-.044.27v6.84H81.71V102.231h5.654a3.933,3.933,0,1,0,7.5,0h5.654v6.84a.855.855,0,0,0,1.125.811l1.075-.358a2.223,2.223,0,1,1,0,4.226l-1.075-.358A.855.855,0,0,0,100.565,113.932Zm20.477,7.11H102.231v-5.654a3.933,3.933,0,1,0,0-7.5v-5.654h6.84a.855.855,0,0,0,.811-1.125l-.358-1.075a2.223,2.223,0,1,1,4.226,0l-.358,1.075a.855.855,0,0,0,.811,1.125h6.84v18.811Zm0-20.521h-5.654a3.933,3.933,0,1,0-7.5,0h-5.654V94.867a3.941,3.941,0,1,0,0-7.5V81.71h18.811Z" transform="translate(-80 -80)" fill="#f30"/></g><path d="M24.6,7.365a3.933,3.933,0,0,0-2.366,0V.855A.855.855,0,0,0,21.376,0H.855A.855.855,0,0,0,0,.855V21.376a.855.855,0,0,0,.855.855h6.51a3.933,3.933,0,1,0,7.5,0h6.51a.855.855,0,0,0,.855-.855v-6.51a3.933,3.933,0,0,0,2.366-7.5ZM24.1,13.229a2.223,2.223,0,0,1-1.383,0l-1.075-.358a.855.855,0,0,0-1.125.811v6.84h-6.84a.855.855,0,0,0-.811,1.125l.358,1.075a2.223,2.223,0,1,1-4.226,0l.358-1.075a.855.855,0,0,0-.811-1.125H1.71V1.71H20.521v6.84a.855.855,0,0,0,1.125.811L22.721,9A2.223,2.223,0,0,1,24.1,13.229Z" fill="#f30"/></svg>