<svg xmlns="http://www.w3.org/2000/svg" width="75.257" height="62.609" viewBox="0 0 75.257 62.609"><g transform="translate(-32.342 -35.31)"><g transform="translate(32.342 35.309)"><g transform="translate(0 18.429)"><path d="M34.92,44.059a.583.583,0,1,0,.151.81A.582.582,0,0,0,34.92,44.059Z" transform="translate(-30.458 -43.957)"/><path d="M34.8,45.818a1.212,1.212,0,1,0,.5,1.639A1.213,1.213,0,0,0,34.8,45.818Z" transform="translate(-31.571 -42.013)"/><path d="M34.86,48.245A1.841,1.841,0,1,0,35.9,50.633,1.841,1.841,0,0,0,34.86,48.245Z" transform="translate(-32.342 -39.255)"/><path d="M35.605,51.2a2.47,2.47,0,1,0,1.73,3.035A2.47,2.47,0,0,0,35.605,51.2Z" transform="translate(-32.184 -35.862)"/><path d="M39.785,58.382a3.1,3.1,0,1,0-3.554,2.564A3.1,3.1,0,0,0,39.785,58.382Z" transform="translate(-30.887 -31.71)"/><path d="M44.872,64.771a.582.582,0,1,0-.624.535A.584.584,0,0,0,44.872,64.771Z" transform="translate(-19.487 -21.128)" opacity="0.2"/><path d="M42.849,63.149a1.212,1.212,0,1,0,.965,1.417A1.211,1.211,0,0,0,42.849,63.149Z" transform="translate(-22.086 -22.277)" opacity="0.4"/><path d="M41.121,61.508a1.842,1.842,0,1,0,1.217,2.3A1.843,1.843,0,0,0,41.121,61.508Z" transform="translate(-25.109 -24.2)" opacity="0.6"/><path d="M39.592,58.935a2.47,2.47,0,1,0,1.287,3.248A2.472,2.472,0,0,0,39.592,58.935Z" transform="translate(-28.046 -27.248)" opacity="0.8"/></g><g transform="translate(6.041)"><path d="M43.958,35.7a.584.584,0,1,0-.354.746A.586.586,0,0,0,43.958,35.7Z" transform="translate(-26.529 -35.309)"/><path d="M43.09,36.919a1.212,1.212,0,1,0-.556,1.622A1.213,1.213,0,0,0,43.09,36.919Z" transform="translate(-28.83 -34.258)"/><path d="M41.969,38.782a1.842,1.842,0,1,0-.567,2.542A1.842,1.842,0,0,0,41.969,38.782Z" transform="translate(-31.338 -32.348)"/><path d="M41.091,41.481a2.47,2.47,0,1,0-.384,3.471A2.469,2.469,0,0,0,41.091,41.481Z" transform="translate(-33.462 -29.376)"/><path d="M40.513,49.613a3.1,3.1,0,1,0-4.381-.017A3.1,3.1,0,0,0,40.513,49.613Z" transform="translate(-35.114 -25.123)"/><path d="M39.835,58.3a.583.583,0,1,0-.82.068A.584.584,0,0,0,39.835,58.3Z" transform="translate(-31.071 -10.391)" opacity="0.2"/><path d="M39.412,55.669a1.212,1.212,0,1,0-.053,1.713A1.212,1.212,0,0,0,39.412,55.669Z" transform="translate(-32.757 -12.715)" opacity="0.4"/><path d="M39.238,53.192a1.841,1.841,0,1,0-.369,2.576A1.842,1.842,0,0,0,39.238,53.192Z" transform="translate(-34.333 -15.916)" opacity="0.6"/><path d="M39.773,50.08a2.47,2.47,0,1,0-.867,3.384A2.47,2.47,0,0,0,39.773,50.08Z" transform="translate(-35.177 -19.975)" opacity="0.8"/></g></g><g transform="translate(56.876 61.98)"><path d="M43.855,59.741V58.056a3.4,3.4,0,0,0,.693.46,5.957,5.957,0,0,0,.85.343,7.179,7.179,0,0,0,.9.219,5.249,5.249,0,0,0,.835.075,3.256,3.256,0,0,0,1.971-.49,1.832,1.832,0,0,0,.435-2.267,2.441,2.441,0,0,0-.6-.667,5.72,5.72,0,0,0-.906-.577q-.524-.278-1.129-.582c-.424-.217-.823-.435-1.191-.656a5.069,5.069,0,0,1-.961-.733,3.054,3.054,0,0,1-.644-.908,3.085,3.085,0,0,1,.132-2.638,3.158,3.158,0,0,1,.961-1.019,4.363,4.363,0,0,1,1.36-.595,6.135,6.135,0,0,1,1.553-.2,5.932,5.932,0,0,1,2.63.435v1.609a4.771,4.771,0,0,0-2.775-.75,4.5,4.5,0,0,0-.936.1,2.7,2.7,0,0,0-.835.32,1.815,1.815,0,0,0-.595.571,1.509,1.509,0,0,0-.23.85,1.737,1.737,0,0,0,.175.808,2,2,0,0,0,.514.622,5.151,5.151,0,0,0,.831.543c.326.175.7.371,1.127.577s.85.443,1.244.682a5.522,5.522,0,0,1,1.029.791,3.531,3.531,0,0,1,.7.961,2.708,2.708,0,0,1,.26,1.208,3.08,3.08,0,0,1-.354,1.528,2.91,2.91,0,0,1-.953,1.019,4.164,4.164,0,0,1-1.383.567,7.513,7.513,0,0,1-1.649.175,7.033,7.033,0,0,1-.716-.045c-.283-.032-.575-.077-.867-.136a6.405,6.405,0,0,1-.837-.222A2.692,2.692,0,0,1,43.855,59.741Z" transform="translate(-43.855 -47.825)"/><path d="M50.718,55.515v4.614h-1.43V47.92h3.354a4.431,4.431,0,0,1,3.035.953,3.4,3.4,0,0,1,1.078,2.689,3.7,3.7,0,0,1-1.2,2.843,4.566,4.566,0,0,1-3.233,1.108H50.718Zm0-6.3v5.006h1.5a3.338,3.338,0,0,0,2.259-.676,2.4,2.4,0,0,0,.78-1.911q0-2.417-2.862-2.419Z" transform="translate(-37.71 -47.718)"/><path d="M57.942,47.92v1.225H56.751V58.9h1.191v1.225H54.128V58.9h1.193V49.145H54.128V47.92Z" transform="translate(-32.236 -47.718)"/><path d="M67.525,60.128H65.771L59.489,50.4a4.133,4.133,0,0,1-.392-.767h-.049a12.837,12.837,0,0,1,.066,1.677v8.82h-1.43V47.92H59.54L65.652,57.5c.256.4.42.669.494.818h.036a12.782,12.782,0,0,1-.085-1.8v-8.6h1.43V60.128Z" transform="translate(-28.215 -47.718)"/><path d="M71.092,60.128h-6.47V47.92h6.2v1.294H66.052v4.062h4.409V54.56H66.052v4.273h5.04v1.3Z" transform="translate(-20.368 -47.718)"/></g></g></svg>