<svg xmlns="http://www.w3.org/2000/svg" width="110.767" height="33.308" viewBox="0 0 110.767 33.308"><g transform="translate(-1080.736 -1171.456)"><g transform="translate(1123.443 1183.142)"><path d="M2412.452,1541.988l-3-7.471h-1.912l4.116,9.935h1.595l4.116-9.935h-1.912Z" transform="translate(-2407.544 -1534.517)"/><path d="M2834.221,1540.306h4.743v-1.722h-4.743v-2.345h5.14v-1.722h-6.915v9.935h6.995v-1.722h-5.219Z" transform="translate(-2818.769 -1534.517)"/><path d="M3197.114,1541.263l-5.081-6.746H3190.5v9.935h1.775v-6.758l5.081,6.758h1.53v-9.935h-1.775Z" transform="translate(-3165.302 -1534.517)"/><rect width="1.775" height="9.935" transform="translate(38.674 0)"/><path d="M3782.188,1534.517l-4.329,9.935h1.93l.954-2.239h4.556l.954,2.239h1.916l-4.314-9.935Zm-.727,6,1.554-3.669,1.565,3.669Z" transform="translate(-3733.751 -1534.517)"/><path d="M4213.036,1534.517l-3.651,5.458-3.652-5.458h-1.462v9.935h1.775v-6.405l2.816,4.219h1.043l2.816-4.219v6.405h1.775v-9.935Z" transform="translate(-4146.438 -1534.517)"/></g><path d="M1111.915,1178.537a7.247,7.247,0,0,0-3.147-1.851,7.211,7.211,0,0,0-11.3-3.654,7.267,7.267,0,0,0-11.51,3.7,7.212,7.212,0,0,0-3.653,11.295A7.262,7.262,0,0,0,1086,1199.53a7.212,7.212,0,0,0,6.851,5.142h.058a7.235,7.235,0,0,1,8.906.091h.057a54.659,54.659,0,0,1,9.961-7.082,7.213,7.213,0,0,0,.624-9.486A7.277,7.277,0,0,0,1111.915,1178.537Zm-.678,8.345-3.693-3.693a7.155,7.155,0,0,0,1.527-4.509,5.5,5.5,0,0,1,2.166,8.2Zm-3.943,11.111a5.511,5.511,0,0,1-.557.028,5.4,5.4,0,0,1-3.778-1.529l-.039-.036-.035-.033-.005,0,.012.011h0a13.963,13.963,0,0,1-4.383-7.2,13.96,13.96,0,0,1,7.144,4.327l.047.056.04.045h0l.036.038.012.012.028.026.008.007A5.484,5.484,0,0,1,1107.3,1197.992Zm-9.907,2.84-3.683-3.683a15.746,15.746,0,0,0,3.681-5.594,15.746,15.746,0,0,0,3.681,5.6Zm-5.466-4.442-.018.016-.057.051c-.017.015-.033.031-.049.047l0,0-.029.032-.006.007a5.459,5.459,0,0,1-3.762,1.491q-.248,0-.5-.022a5.425,5.425,0,0,1,1.448-4.277l.006-.006.033-.031.011-.011.039-.041.021-.024.009-.01h0l.02-.023.017-.019a13.954,13.954,0,0,1,7.16-4.343A13.972,13.972,0,0,1,1091.922,1196.39Zm-4.445-18.168a5.471,5.471,0,0,1,.557-.028,5.4,5.4,0,0,1,3.846,1.594l0,0,.038.036a13.953,13.953,0,0,1,4.343,7.158,13.936,13.936,0,0,1-7.153-4.334l-.007-.007h0l-.035-.037,0,0A5.485,5.485,0,0,1,1087.477,1178.222Zm9.911-2.691,3.606,3.608a15.714,15.714,0,0,0-3.607,5.52,15.732,15.732,0,0,0-3.608-5.52Zm5.445,4.312h0c.022-.018.043-.036.063-.057a5.459,5.459,0,0,1,3.886-1.61c.164,0,.328.007.492.022a5.407,5.407,0,0,1-1.566,4.4.88.88,0,0,0-.068.077,13.949,13.949,0,0,1-7.13,4.309A13.938,13.938,0,0,1,1102.832,1179.844Zm-14.414,4.658a15.716,15.716,0,0,0,5.521,3.607,15.731,15.731,0,0,0-5.594,3.681l-3.608-3.608Zm18.011,7.29a15.735,15.735,0,0,0-5.6-3.684,15.72,15.72,0,0,0,5.522-3.606l3.682,3.682Zm-.721-16.884a5.4,5.4,0,0,1,1.063,1.5,7.211,7.211,0,0,0-4.464,1.541l-3.616-3.618A5.452,5.452,0,0,1,1105.708,1174.907Zm-9.548-.651-3.693,3.693a7.153,7.153,0,0,0-4.434-1.525h-.077a5.5,5.5,0,0,1,8.2-2.169Zm-11.974,5.532a5.441,5.441,0,0,1,1.5-1.062,7.243,7.243,0,0,0,1.542,4.463l-3.616,3.616a5.441,5.441,0,0,1,.576-7.017Zm-.713,9.633,3.69,3.69a7.188,7.188,0,0,0-1.462,4.425,5.491,5.491,0,0,1-2.228-8.116Zm5.592,11.888a5.442,5.442,0,0,1-1.062-1.5,7.216,7.216,0,0,0,4.381-1.476l3.612,3.612A5.471,5.471,0,0,1,1089.066,1201.309Zm9.637.712,3.689-3.689a7.156,7.156,0,0,0,4.347,1.459h.081a5.463,5.463,0,0,1-1.112,1.594A5.522,5.522,0,0,1,1098.7,1202.02Zm11.884-5.591a5.428,5.428,0,0,1-1.5,1.062,7.254,7.254,0,0,0-1.476-4.378l3.613-3.613A5.471,5.471,0,0,1,1110.586,1196.429Z"/></g></svg>